{"title":"2 Guns (2013) HDTVRip [Russian]","uid":9075363,"size":1483505664,"categoryP":"video","categoryS":"movies","magnet":"?xt=urn:btih:51aeca9115870fc8a9cfdcddb2476d292963b95f&amp;dn=2+Guns+%282013%29+HDTVRip+%5BRussian%5D&amp;tr=udp%3A%2F%2Ftracker.openbittorrent.com%3A80&amp;tr=udp%3A%2F%2Fopen.demonii.com%3A1337&amp;tr=udp%3A%2F%2Ftracker.coppersurfer.tk%3A6969&amp;tr=udp%3A%2F%2Fexodus.desync.com%3A6969","seeders":2,"leechers":0,"uploader":"yfjfrj","files":1,"time":1382276643,"description":"General\nComplete name                            : C:UsersivanDesktop2.Guns.2013.Dt.HDTVRip.1400MB.avi\nFormat                                   : AVI\nFormat/Info                              : Audio Video Interleave\nFile size                                : 1.38 GiB\nDuration                                 : 1h 44mn\nOverall bit rate                         : 1 899 Kbps\nWriting application                      : VirtualDubMod 1.5.10.3 (build 2550/release)\nWriting library                          : VirtualDubMod build 2550/release\n\nVideo\nID                                       : 0\nFormat                                   : MPEG-4 Visual\nFormat profile                           : Advanced Simple@L5\nFormat settings, BVOP                    : 2\nFormat settings, QPel                    : No\nFormat settings, GMC                     : No warppoints\nFormat settings, Matrix                  : Custom\nCodec ID                                 : XVID\nCodec ID/Hint                            : XviD\nDuration                                 : 1h 44mn\nBit rate                                 : 1 719 Kbps\nWidth                                    : 720 pixels\nHeight                                   : 320 pixels\nDisplay aspect ratio                     : 2.25:1\nFrame rate                               : 60.000 fps\nColor space                              : YUV\nChroma subsampling                       : 4:2:0\nBit depth                                : 8 bits\nScan type                                : Progressive\nCompression mode                         : Lossy\nBits/(Pixel*Frame)                       : 0.124\nStream size                              : 1.25 GiB (91%)\nWriting library                          : XviD 1.2.1 (UTC 2008-12-04)\n\nAudio\nID                                       : 1\nFormat                                   : MPEG Audio\nFormat version                           : Version 1\nFormat profile                           : Layer 3\nMode                                     : Joint stereo\nMode extension                           : MS Stereo\nCodec ID                                 : 55\nCodec ID/Hint                            : MP3\nDuration                                 : 1h 44mn\nBit rate mode                            : Constant\nBit rate                                 : 160 Kbps\nChannel(s)                               : 2 channels\nSampling rate                            : 48.0 KHz\nCompression mode                         : Lossy\nStream size                              : 119 MiB (8%)\nAlignment                                : Aligned on interleaves\nInterleave, duration                     : 24 ms (1.44 video frame)\nInterleave, preload duration             : 504 ms\n","torrent":{"xt":"urn:btih:51aeca9115870fc8a9cfdcddb2476d292963b95f","amp;dn":"2+Guns+%282013%29+HDTVRip+%5BRussian%5D","amp;tr":["udp%3A%2F%2Ftracker.openbittorrent.com%3A80","udp%3A%2F%2Fopen.demonii.com%3A1337","udp%3A%2F%2Ftracker.coppersurfer.tk%3A6969","udp%3A%2F%2Fexodus.desync.com%3A6969"],"infoHash":"51aeca9115870fc8a9cfdcddb2476d292963b95f","infoHashBuffer":{"type":"Buffer","data":[81,174,202,145,21,135,15,200,169,207,220,221,178,71,109,41,41,99,185,95]},"announce":[],"urlList":[]}}